<svg width="20" height="20" viewBox="0 0 20 20" fill="none" xmlns="http://www.w3.org/2000/svg">
<g clip-path="url(#clip0)">
<path d="M18.9001 1.10016C18.1668 0.366765 17.2834 0 16.2506 0H3.75047C2.71757 0 1.83418 0.366765 1.10065 1.10016C0.367254 1.83369 0.000488281 2.71704 0.000488281 3.74997V16.2499C0.000488281 17.2828 0.367254 18.1662 1.10065 18.8997C1.83418 19.6333 2.71757 20 3.75047 20H16.2504C17.2833 20 18.1667 19.6333 18.8999 18.8997C19.6334 18.1662 20.0002 17.2828 20.0002 16.2499V3.74997C20.0002 2.71704 19.6334 1.83355 18.9001 1.10016ZM6.09417 16.7447H3.08635V7.70819H6.09417V16.7447ZM5.8209 6.03517C5.50845 6.33466 5.09608 6.48443 4.58387 6.48443H4.57074C4.076 6.48443 3.67467 6.33466 3.36641 6.03517C3.05812 5.73567 2.90406 5.36462 2.90406 4.92192C2.90406 4.47055 3.06259 4.09722 3.37932 3.80201C3.69629 3.50689 4.10638 3.35927 4.60978 3.35927C5.11323 3.35927 5.51689 3.50689 5.82076 3.80201C6.12455 4.09722 6.28084 4.47055 6.28946 4.92192C6.28941 5.36444 6.13335 5.73549 5.8209 6.03517ZM16.9145 16.7447H13.9067V11.914C13.9067 10.5514 13.4034 9.86983 12.3964 9.86983C12.0145 9.86983 11.6931 9.97614 11.4328 10.1888C11.1722 10.4014 10.9769 10.6597 10.8469 10.9637C10.786 11.1198 10.7557 11.3628 10.7557 11.6926V16.7446H7.7479C7.77394 11.2933 7.77394 8.28105 7.7479 7.7081H10.7557V8.98389C11.3882 7.9951 12.2862 7.49968 13.4511 7.49968C14.4928 7.49968 15.3305 7.84263 15.9642 8.52828C16.5979 9.21406 16.9147 10.2255 16.9147 11.562V16.7447H16.9145Z" fill="#FFD12C"/>
</g>
<defs>
<clipPath id="clip0">
<rect width="20" height="20" fill="white"/>
</clipPath>
</defs>
</svg>
