<?xml version="1.0" encoding="UTF-8"?>
<svg width="1045px" height="546px" viewBox="0 0 1045 546" version="1.1" xmlns="http://www.w3.org/2000/svg" xmlns:xlink="http://www.w3.org/1999/xlink" style="background: #FFFFFF;">
    <!-- Generator: Sketch 52.2 (67145) - http://www.bohemiancoding.com/sketch -->
    <title>Slice</title>
    <desc>Created with Sketch.</desc>
    <g id="Page-1" stroke="none" stroke-width="1" fill="none" fill-rule="evenodd">
        <g id="Group" transform="translate(97.000000, 84.000000)">
            <path d="M152,295 C102.294373,295 62,254.705627 62,205 C62,155.294373 102.294373,115 152,115 C201.705627,115 242,155.294373 242,205 C242,254.705627 201.705627,295 152,295 Z M129.441918,150.546093 C86.9953475,208.59497 126.903882,258.034574 129.441918,258.034574 C131.979954,258.034574 153.668977,285.60295 179.668977,258.034574 C210.100306,221.728862 197.872839,166.063721 179.668977,150.546093 C161.465115,135.028464 151.018521,135.274632 129.441918,150.546093 Z" id="Combined-Shape-Copy-61" fill="#FFFFFF"></path>
            <path d="M574.065055,224.231291 C574.065055,184.292121 552.896769,149.387151 514.91563,140.915782 C507.36326,139.231291 497.676838,140.304712 495.060947,140.731264 C447.637167,148.464287 433,188.034056 431,217.115645 C435.290876,276.838758 474.065055,291.038208 502.565055,294.231291 C541.054015,294.231291 556.414318,284.194766 570.316544,265 C563.967064,264.532742 564.497713,265.064198 558.889922,262.231291 C543.772278,282.976857 477.369105,294.231291 474.065055,224.231291 C488.094738,224.412453 547.881631,224.563217 574.065055,224.231291 Z" id="Path-2-Copy-58" fill="#FFFFFF"></path>
            <path d="M262.053244,160.674236 C277.085332,158.82318 291.418666,151.598435 305.053244,139 C305.053244,196.857911 305.053244,240.251345 305.053244,269.1803 C305.053244,271.123629 304.794809,272.278177 306.922965,275.614261 C311.134953,282.216945 327.11816,283.017932 335.322378,279.44905 C338.210387,280.54328 341.785022,280.83227 346.046284,280.316019 C339.053244,290.020545 299.623914,309.520168 267.560758,278.844138 C266.711228,278.031361 265.336418,276.733328 263.880881,273.963895 C262.425344,271.194463 262,267.883976 262,265.184501 C262,243.455215 262.017748,208.61846 262.053244,160.674236 Z" id="Path-Copy-85" fill="#FFFFFF"></path>
            <path d="M344.053244,160.674236 C359.085332,158.82318 373.418666,151.598435 387.053244,139 C387.053244,196.857911 387.053244,240.251345 387.053244,269.1803 C387.053244,271.123629 386.794809,272.278177 388.922965,275.614261 C393.134953,282.216945 409.11816,283.017932 417.322378,279.44905 C420.210387,280.54328 423.785022,280.83227 428.046284,280.316019 C421.053244,290.020545 381.623914,309.520168 349.560758,278.844138 C348.711228,278.031361 347.336418,276.733328 345.880881,273.963895 C344.425344,271.194463 344,267.883976 344,265.184501 C344,243.455215 344.017748,208.61846 344.053244,160.674236 Z" id="Path-Copy-84" fill="#FFFFFF"></path>
            <path d="M628,139 C611.273602,152.911979 616,153.655289 585,165 C585,251.154194 585,294.231291 585,294.231291 L627.821659,294.231291" id="Path-2-Copy-57" fill="#FFFFFF"></path>
            <path d="M628.178341,180.485057 C634.178341,171 649.178341,139 692.306754,139 C690.549437,147.729461 690.549437,155.828406 692.178341,164 C663.511674,150.048044 642.178341,161.766542 628.178341,199.155495 C628.168974,182.932409 627.781799,198.657068 628.178341,180.485057 Z" id="Path-3-Copy-39" fill="#FFFFFF"></path>
            <path d="M244,240.839814 L230,179.730469 L304,161 C476.061712,186.848958 586.743807,194.977865 636.046284,185.386719 C685.348761,175.795573 721.333333,167.666667 744,161 C742.030856,176.331079 730.697523,194.997746 710,217 C678,234.839814 535,269.023437 455,251.011719 C401.666667,239.003906 331.333333,235.613271 244,240.839814 Z" id="Path-6" fill="#FFFFFF"></path>
            <path d="M704.660051,323.824582 C704.660051,323.824582 704.660051,323.824582 704.660051,323.824582 L704.660051,323.824582 C714.445681,335.111775 713.228423,352.194673 701.941229,361.980303 C699.589967,364.018771 696.904575,365.636212 694.003254,366.761434 C628.886673,392.015645 579.630391,404.622601 546.234404,404.582298 C480.513212,404.502983 435.234404,374.386372 296.92765,379.297193 C203.137498,382.627375 165.690356,390.65601 149,390.65601 C164.595505,343.747201 240.660051,213.410062 324.660051,203.367616 C408.660051,193.32517 479.085698,240.843386 554.660051,272.2113 C630.234404,303.579215 694.010349,311.540727 704.660051,323.824582 Z" id="Rectangle-Copy-93" fill="#35C0FF" transform="translate(430.135890, 303.291197) rotate(180.000000) translate(-430.135890, -303.291197) "></path>
            <path d="M172.100775,75.5117187 C202.83402,33.7265091 249.494141,17.2546891 329.847962,17.2546891 C451.544629,17.2546891 482.46232,57.1177018 550.391385,57.1177018 C601.158345,57.1177018 631.834194,4 686.470028,4 C714.711413,4 797.118262,41.7150182 803.802074,81.1177018 C808.035664,106.075737 772.18132,126.117702 758.859955,139.117702 C750.617663,147.161155 746.852373,162.524913 745.129535,165.957515 C733.430444,189.26693 741.228686,189.26693 663.794226,203.607389 C612.338424,213.136736 537.579991,209.66328 516.794226,208.117702 C398.733361,199.338986 355.488805,179.107293 302.794226,184.242171 C238.699633,190.487935 214.437557,203.004596 205.294722,202.940678 C194.828983,202.867511 192.302799,313.989623 51.7942263,392.044415 C46.5067261,394.981707 26.8205243,403.214778 10.7942263,403.214778 C-5.23207161,403.214778 0.618232335,390.268914 3.17624102,386.421392 C15.3392111,368.126966 56.4837411,320.225286 92.7942263,254.350944 C126.805564,192.647708 150.177344,105.319023 172.100775,75.5117187 Z" id="Rectangle-Copy-92" fill="#00228E"></path>
            <ellipse id="Oval-Copy-81" fill="#FFFFFF" cx="150" cy="207.5" rx="81" ry="80.5"></ellipse>
            <path d="M152,295 C102.294373,295 62,254.705627 62,205 C62,155.294373 102.294373,115 152,115 C201.705627,115 242,155.294373 242,205 C242,254.705627 201.705627,295 152,295 Z M129.441918,150.546093 C86.9953475,208.59497 126.903882,258.034574 129.441918,258.034574 C131.979954,258.034574 153.668977,285.60295 179.668977,258.034574 C210.100306,221.728862 197.872839,166.063721 179.668977,150.546093 C161.465115,135.028464 151.018521,135.274632 129.441918,150.546093 Z" id="Combined-Shape-Copy-60" fill="#FFFFFF"></path>
            <path d="M118.550388,231.839814 C132.109192,231.839814 143.100775,221.087362 143.100775,207.82354 C143.100775,196.141281 134.574161,186.407192 123.276811,184.251927 C121.747358,183.960144 135.51881,161 133.902074,161 C131.425936,161 94,184.251927 94,207.82354 C94,221.08621 104.991583,231.839814 118.550388,231.839814 Z" id="Oval-Copy-216" fill="#00228E"></path>
            <path d="M574.065055,224.231291 C547.881631,224.563217 488.094738,224.412453 474.065055,224.231291 C477.369105,294.231291 543.772278,282.976857 558.889922,262.231291 C564.497713,265.064198 563.967064,264.532742 570.316544,265 C556.414318,284.194766 541.054015,294.231291 502.565055,294.231291 C474.065055,291.038208 435.290876,276.838758 431,217.115645 C433,188.034056 447.637167,148.464287 495.060947,140.731264 C497.676838,140.304712 507.36326,139.231291 514.91563,140.915782 C552.896769,149.387151 574.065055,184.292121 574.065055,224.231291 Z M479.550519,183.325911 C475.393193,192.912739 473.209687,201.600802 473,209.3901 L534,209.3901 C534,198.227705 531.583646,186.869823 525.531368,177.738512 C509.372632,153.359185 485.786508,168.945668 479.550519,183.325911 Z" id="Combined-Shape-Copy-59" fill="#FFFFFF"></path>
            <path d="M262.053244,160.674236 C277.085332,158.82318 291.418666,151.598435 305.053244,139 C305.053244,196.857911 305.053244,240.251345 305.053244,269.1803 C305.053244,271.123629 304.794809,272.278177 306.922965,275.614261 C311.134953,282.216945 327.11816,283.017932 335.322378,279.44905 C338.210387,280.54328 341.785022,280.83227 346.046284,280.316019 C339.053244,290.020545 299.623914,309.520168 267.560758,278.844138 C266.711228,278.031361 265.336418,276.733328 263.880881,273.963895 C262.425344,271.194463 262,267.883976 262,265.184501 C262,243.455215 262.017748,208.61846 262.053244,160.674236 Z" id="Path-Copy-83" fill="#FFFFFF"></path>
            <path d="M344.053244,160.674236 C359.085332,158.82318 373.418666,151.598435 387.053244,139 C387.053244,196.857911 387.053244,240.251345 387.053244,269.1803 C387.053244,271.123629 386.794809,272.278177 388.922965,275.614261 C393.134953,282.216945 409.11816,283.017932 417.322378,279.44905 C420.210387,280.54328 423.785022,280.83227 428.046284,280.316019 C421.053244,290.020545 381.623914,309.520168 349.560758,278.844138 C348.711228,278.031361 347.336418,276.733328 345.880881,273.963895 C344.425344,271.194463 344,267.883976 344,265.184501 C344,243.455215 344.017748,208.61846 344.053244,160.674236 Z" id="Path-Copy-82" fill="#FFFFFF"></path>
            <path d="M182.550388,232.839814 C196.109192,232.839814 207.100775,222.087362 207.100775,208.82354 C207.100775,197.141281 198.574161,187.407192 187.276811,185.251927 C185.747358,184.960144 199.51881,162 197.902074,162 C195.425936,162 158,185.251927 158,208.82354 C158,222.08621 168.991583,232.839814 182.550388,232.839814 Z" id="Oval-Copy-215" fill="#FE0000"></path>
            <path d="M628,139 C611.273602,152.911979 616,153.655289 585,165 C585,251.154194 585,294.231291 585,294.231291 L627.821659,294.231291" id="Path-2-Copy-56" fill="#FFFFFF"></path>
            <path d="M627.178341,180.485057 C633.178341,171 648.178341,139 691.306754,139 C689.549437,147.729461 688.371096,166.828406 690,175 C662.118894,153.714711 641.178341,161.766542 627.178341,199.155495 C627.168974,182.932409 626.781799,198.657068 627.178341,180.485057 Z" id="Path-3-Copy-38" fill="#FFFFFF"></path>
            <ellipse id="Oval-Copy-82" fill="#00228E" cx="666.5" cy="19" rx="18.5" ry="19"></ellipse>
        </g>
    </g>
</svg>