<svg xmlns="http://www.w3.org/2000/svg" viewBox="0 0 456.76 339.79"><defs><style>.cls-1{fill:#a1daf7;}.cls-2{fill:#dce07e;}.cls-3{fill:#b9d280;}.cls-4{fill:#fff;}.cls-5{fill:#ddf1fc;}.cls-6{fill:#fddf94;}.cls-7{fill:#dfd394;}.cls-8{fill:#e4cf5a;}.cls-9{fill:#f2da94;}.cls-10{fill:#f9cfcd;}.cls-11{fill:#cbbeca;}.cls-12{fill:#d3b987;}.cls-13{fill:#e7c8cb;}.cls-14{fill:#e6b590;}.cls-15{fill:#e9b273;}.cls-16{fill:#f1b890;}.cls-17,.cls-19{font-size:7.72px;}.cls-17,.cls-18,.cls-19{font-family:Avenir-Medium, Avenir;font-weight:500;}.cls-18{font-size:7.72px;}.cls-18,.cls-19{fill:#37bef0;}.cls-20{font-size:8px;fill:#666;font-family:Avenir-Book, Avenir;}.cls-21{fill:none;stroke:#716c6a;stroke-width:0.3px;}.cls-22{fill:#716c6a;}</style></defs><title>资源 1</title><g id="图层_2" data-name="图层 2"><g id="图层_1-2" data-name="图层 1"><path class="cls-1" d="M226.94,292.64l-23.77-38.9a72,72,0,0,0,22.74-8.23,72.07,72.07,0,0,0,24.33,8.84l-23.3,38.29m93.63-153.85a73.16,73.16,0,0,0-21.63-19.13,72,72,0,0,0-5.51-27h55.2l-28.06,46.09m-187.64,0-28.13-46H160a72,72,0,0,0-5.52,27.21,72.4,72.4,0,0,0-21.55,18.84"/><path class="cls-2" d="M262.53,254.37a71.85,71.85,0,0,1-11.72-1L320,139.73a71.72,71.72,0,0,1-57.47,114.64"/><path class="cls-3" d="M250.81,253.42a71.3,71.3,0,0,1-23.89-8.5,72.19,72.19,0,0,0,35.61-61.74A72.23,72.23,0,0,0,299,120.84,72,72,0,0,1,320,139.73L250.81,253.42"/><path class="cls-4" d="M262.53,255.39a73.23,73.23,0,0,1-12.29-1l.57-.93A71.73,71.73,0,0,0,320,139.73l.57-.94a72.43,72.43,0,0,1,14.7,43.86h0a72.74,72.74,0,0,1-72.74,72.74"/><path class="cls-5" d="M250.24,254.35a72.07,72.07,0,0,1-24.33-8.84l1-.59a71.3,71.3,0,0,0,23.89,8.5l-.57.93M320,139.73A72,72,0,0,0,299,120.84v-.41c0-.25,0-.51,0-.77a73.16,73.16,0,0,1,21.63,19.13l-.57.94"/><path class="cls-6" d="M293.43,92.7H160a72.26,72.26,0,0,1,133.43,0"/><path class="cls-7" d="M154.48,119.91A72,72,0,0,1,160,92.7H293.43a72,72,0,0,1,5.51,27,72.83,72.83,0,0,0-73,.13,72.28,72.28,0,0,0-71.43.12"/><path class="cls-8" d="M262.53,183.18v-.53a72.21,72.21,0,0,0-35.61-62.28,71.82,71.82,0,0,1,72,.47,72.23,72.23,0,0,1-36.42,62.34"/><path class="cls-9" d="M299,120.84a71.82,71.82,0,0,0-72-.47c-.33-.2-.67-.39-1-.58a72.83,72.83,0,0,1,73-.13c0,.26,0,.52,0,.77v.41"/><path class="cls-10" d="M190.3,254.88a72.24,72.24,0,0,1-57.37-116.13l70.24,115a72.82,72.82,0,0,1-12.87,1.14"/><path class="cls-11" d="M203.17,253.74l-70.24-115a72.4,72.4,0,0,1,21.55-18.84v.52a72.2,72.2,0,0,0,35.31,62.1v.12a72.69,72.69,0,0,0,36.12,62.86,72,72,0,0,1-22.74,8.23"/><path class="cls-12" d="M226.92,244.92a71.8,71.8,0,0,1-36.11-61.79,72.33,72.33,0,0,0,71.72.05,72.19,72.19,0,0,1-35.61,61.74"/><path class="cls-13" d="M225.91,245.51a72.69,72.69,0,0,1-36.12-62.86v-.12l1,.6a71.8,71.8,0,0,0,36.11,61.79l-1,.59"/><path class="cls-14" d="M189.79,182.53a72.2,72.2,0,0,1-35.31-62.1v-.52a72.28,72.28,0,0,1,71.43-.12,72.7,72.7,0,0,0-36.12,62.74"/><path class="cls-15" d="M226.71,192.67a71.87,71.87,0,0,1-35.9-9.54v-.48a71.79,71.79,0,0,1,36.11-62.28,72.21,72.21,0,0,1,35.61,62.28v.53a71.9,71.9,0,0,1-35.82,9.49"/><path class="cls-16" d="M190.81,183.13l-1-.6a72.7,72.7,0,0,1,36.12-62.74c.34.19.68.38,1,.58a71.79,71.79,0,0,0-36.11,62.28v.48"/><path class="cls-4" d="M334,194.57q-.48,3-1.22,5.86a1,1,0,0,0,2,.5q.75-3,1.26-6a1,1,0,0,0-2-.33Zm-2.92,11.6q-1,2.84-2.18,5.58a1,1,0,0,0,1.86.81c.82-1.87,1.57-3.79,2.24-5.74a1,1,0,0,0-1.92-.65Zm-4.81,11c-1,1.75-2,3.47-3.07,5.14a1,1,0,1,0,1.69,1.11q1.69-2.58,3.16-5.29a1,1,0,1,0-1.78-1Zm-6.56,10c-1.22,1.58-2.52,3.1-3.87,4.57a1,1,0,0,0,1.49,1.37q2.09-2.27,4-4.69a1,1,0,0,0-.17-1.43,1,1,0,0,0-1.43.18Zm-8.1,8.8c-1.47,1.35-3,2.65-4.57,3.87a1,1,0,0,0-.17,1.43,1,1,0,0,0,1.42.17q2.43-1.89,4.69-4a1,1,0,1,0-1.37-1.49Zm-9.44,7.36c-1.66,1.09-3.38,2.11-5.13,3.07a1,1,0,0,0-.41,1.37,1,1,0,0,0,1.37.41q2.72-1.47,5.29-3.16a1,1,0,1,0-1.12-1.69ZM291.66,249q-2.71,1.2-5.57,2.18a1,1,0,1,0,.66,1.92q2.92-1,5.73-2.24a1,1,0,0,0-.82-1.86Zm-11.3,3.89q-2.89.72-5.86,1.22a1,1,0,1,0,.33,2q3.06-.51,6-1.26a1,1,0,1,0-.49-2Zm-11.8,2c-2,.16-4,.24-6,.25a1,1,0,1,0,0,2q3.1,0,6.14-.25a1,1,0,0,0,.93-1.09,1,1,0,0,0-1.09-.93Zm-12,0q-3-.24-5.94-.72a1,1,0,0,0-1.16.83,1,1,0,0,0,.83,1.17q3,.5,6.11.75a1,1,0,0,0,.16-2Zm-11.8-1.94c-1.94-.49-3.86-1.06-5.74-1.7a1,1,0,1,0-.65,1.91q2.9,1,5.9,1.75a1,1,0,1,0,.49-2ZM233.47,249c-1.83-.8-3.63-1.68-5.38-2.63a1,1,0,0,0-1,1.79q2.7,1.45,5.53,2.7a1,1,0,0,0,.81-1.86ZM223,243.34c-1.68-1.1-3.3-2.26-4.88-3.48a1,1,0,0,0-1.42.17,1,1,0,0,0,.18,1.43c1.62,1.25,3.29,2.45,5,3.57a1,1,0,1,0,1.11-1.69ZM213.5,236q-2.2-2-4.23-4.23a1,1,0,1,0-1.49,1.37q2.08,2.26,4.35,4.35A1,1,0,1,0,213.5,236Zm-8.11-8.8q-1.84-2.35-3.48-4.86a1,1,0,0,0-1.41-.3,1,1,0,0,0-.29,1.41c1.13,1.72,2.32,3.38,3.58,5a1,1,0,0,0,1.43.17,1,1,0,0,0,.17-1.42Zm-6.56-10q-1.43-2.62-2.63-5.37a1,1,0,0,0-1.86.82q1.24,2.82,2.71,5.52a1,1,0,1,0,1.78-1ZM194,206.25q-1-2.82-1.72-5.74a1,1,0,0,0-2,.5q.75,3,1.76,5.9a1,1,0,0,0,1.29.63,1,1,0,0,0,.62-1.29Zm-3-11.59q-.48-2.94-.74-5.94a1,1,0,0,0-1.09-.93,1,1,0,0,0-.93,1.09c.17,2.06.43,4.1.76,6.11a1,1,0,0,0,1.17.83,1,1,0,0,0,.83-1.16Zm-1-11.93v-.08c0-2,.08-4,.24-5.9a1,1,0,0,0-2-.16q-.24,3-.24,6.06v.09a1,1,0,1,0,2,0Zm1-11.92c.32-2,.73-3.94,1.21-5.86a1,1,0,0,0-2-.49q-.73,3-1.25,6a1,1,0,0,0,2,.33Zm2.91-11.6q1-2.85,2.17-5.58a1,1,0,0,0-1.86-.82c-.82,1.88-1.56,3.79-2.23,5.75a1,1,0,0,0,1.92.65Zm4.8-11q1.43-2.64,3.06-5.15a1,1,0,0,0-1.7-1.11q-1.68,2.58-3.15,5.29a1,1,0,0,0,1.79,1Zm6.54-10c1.22-1.57,2.51-3.1,3.86-4.57a1,1,0,1,0-1.49-1.37q-2.08,2.26-4,4.7a1,1,0,1,0,1.6,1.24Zm8.09-8.81c1.47-1.35,3-2.65,4.56-3.88a1,1,0,1,0-1.25-1.59c-1.61,1.26-3.18,2.59-4.68,4a1,1,0,0,0,1.37,1.49Zm9.43-7.37c1.66-1.09,3.37-2.12,5.13-3.07a1,1,0,1,0-1-1.78c-1.8,1-3.57,2-5.28,3.16a1,1,0,1,0,1.12,1.69Zm10.5-5.71c1.82-.8,3.67-1.53,5.57-2.19a1,1,0,1,0-.66-1.91q-2.92,1-5.73,2.24a1,1,0,0,0,.82,1.86Zm11.3-3.9c1.92-.49,3.88-.9,5.86-1.23a1,1,0,0,0,.83-1.17,1,1,0,0,0-1.17-.83q-3,.51-6,1.26a1,1,0,0,0,.5,2Zm11.8-2c2-.16,4-.25,6-.25a1,1,0,0,0,0-2q-3.11,0-6.15.26a1,1,0,1,0,.17,2Zm12,0q3,.24,5.94.72a1,1,0,1,0,.33-2q-3-.5-6.11-.74a1,1,0,0,0-.16,2Zm11.81,1.93c1.94.49,3.86,1.06,5.74,1.7a1,1,0,0,0,1.28-.63,1,1,0,0,0-.63-1.29q-2.9-1-5.9-1.74a1,1,0,1,0-.49,2Zm11.32,3.87q2.76,1.2,5.38,2.62a1,1,0,0,0,1.38-.41,1,1,0,0,0-.41-1.38q-2.7-1.45-5.54-2.69a1,1,0,0,0-1.33.52,1,1,0,0,0,.52,1.34ZM302,121.91c1.68,1.09,3.3,2.25,4.88,3.47a1,1,0,1,0,1.24-1.6c-1.62-1.25-3.29-2.45-5-3.57a1,1,0,0,0-1.11,1.7Zm9.45,7.34c1.48,1.35,2.89,2.76,4.25,4.22a1,1,0,1,0,1.49-1.37q-2.1-2.26-4.36-4.35a1,1,0,0,0-1.38,1.5Zm8.13,8.78q1.85,2.35,3.49,4.86a1,1,0,1,0,1.69-1.11c-1.12-1.72-2.32-3.38-3.58-5a1,1,0,0,0-1.43-.17,1,1,0,0,0-.17,1.42Zm6.57,10q1.43,2.61,2.64,5.36a1,1,0,0,0,1.34.52,1,1,0,0,0,.52-1.34q-1.24-2.82-2.72-5.51a1,1,0,1,0-1.78,1ZM331,159q1,2.82,1.72,5.73a1,1,0,1,0,2-.5q-.76-3-1.76-5.89A1,1,0,1,0,331,159Zm3,11.59q.48,2.92.74,5.94a1,1,0,0,0,1.1.92,1,1,0,0,0,.92-1.09c-.17-2.06-.43-4.1-.76-6.11a1,1,0,0,0-1.17-.83,1,1,0,0,0-.83,1.17Zm1,11.92v.18c0,2-.08,4-.24,6a1,1,0,0,0,.92,1.09,1,1,0,0,0,1.1-.93c.16-2,.25-4.07.25-6.14v-.18a1,1,0,1,0-2,0Z"/><path class="cls-4" d="M261.77,194.57q-.5,3-1.22,5.86a1,1,0,0,0,2,.5q.74-3,1.25-6a1,1,0,1,0-2-.33Zm-2.93,11.6q-1,2.84-2.17,5.58a1,1,0,0,0,1.85.81c.83-1.87,1.57-3.79,2.24-5.74a1,1,0,0,0-1.92-.65Zm-4.81,11c-.95,1.75-2,3.47-3.07,5.14a1,1,0,0,0,1.7,1.11c1.12-1.72,2.18-3.48,3.15-5.29a1,1,0,1,0-1.78-1Zm-6.55,10q-1.84,2.37-3.87,4.57a1,1,0,1,0,1.49,1.37q2.09-2.27,4-4.69a1,1,0,0,0-.18-1.43,1,1,0,0,0-1.42.18Zm-8.11,8.8c-1.46,1.35-3,2.65-4.56,3.87a1,1,0,0,0-.18,1.43,1,1,0,0,0,1.43.17q2.43-1.89,4.69-4a1,1,0,1,0-1.37-1.49Zm-9.43,7.36q-2.5,1.63-5.14,3.07a1,1,0,0,0,1,1.78q2.72-1.47,5.28-3.16a1,1,0,0,0-1.11-1.69ZM219.43,249q-2.73,1.2-5.57,2.18a1,1,0,1,0,.66,1.92q2.92-1,5.73-2.24a1,1,0,1,0-.82-1.86Zm-11.31,3.89q-2.88.72-5.86,1.22a1,1,0,0,0,.34,2q3-.51,6-1.26a1,1,0,1,0-.5-2Zm-11.8,2q-3,.24-6,.25a1,1,0,0,0,0,2q3.1,0,6.15-.25a1,1,0,1,0-.17-2Zm-12,0c-2-.16-4-.4-5.94-.72a1,1,0,0,0-1.17.83,1,1,0,0,0,.84,1.17q3,.5,6.11.75a1,1,0,0,0,.16-2Zm-11.8-1.94q-2.92-.74-5.74-1.7a1,1,0,1,0-.66,1.91c1.94.67,3.9,1.25,5.9,1.75a1,1,0,1,0,.5-2ZM161.24,249q-2.76-1.2-5.38-2.63a1,1,0,1,0-1,1.79q2.7,1.45,5.54,2.7a1,1,0,0,0,.81-1.86Zm-10.53-5.69q-2.51-1.65-4.87-3.49a1,1,0,0,0-1.24,1.61c1.61,1.25,3.28,2.45,5,3.57a1,1,0,1,0,1.11-1.69ZM141.27,236q-2.21-2-4.24-4.23a1,1,0,0,0-1.49,1.37c1.39,1.51,2.85,3,4.36,4.35a1,1,0,0,0,1.37-1.49Zm-8.11-8.8q-1.84-2.35-3.49-4.86a1,1,0,1,0-1.69,1.11c1.12,1.72,2.32,3.38,3.58,5a1,1,0,0,0,1.6-1.25Zm-6.56-10q-1.42-2.62-2.64-5.37a1,1,0,1,0-1.85.82q1.24,2.82,2.71,5.52a1,1,0,1,0,1.78-1Zm-4.82-10.94q-1-2.82-1.71-5.74a1,1,0,0,0-2,.5q.77,3,1.76,5.9a1,1,0,0,0,1.92-.66Zm-2.94-11.59q-.48-2.94-.74-5.94a1,1,0,0,0-2,.16c.17,2.06.43,4.1.76,6.11a1,1,0,0,0,2-.33Zm-1-11.93v-.08c0-2,.08-4,.24-5.9a1,1,0,0,0-.93-1.09,1,1,0,0,0-1.1.93q-.24,3-.24,6.06v.09a1,1,0,1,0,2,0Zm1-11.92c.33-2,.73-3.94,1.22-5.86a1,1,0,0,0-.74-1.23,1,1,0,0,0-1.23.74c-.5,2-.91,4-1.25,6a1,1,0,1,0,2,.33Zm2.92-11.6c.64-1.9,1.37-3.76,2.17-5.58a1,1,0,0,0-1.86-.82c-.82,1.88-1.57,3.79-2.23,5.74a1,1,0,0,0,.63,1.29,1,1,0,0,0,1.29-.63Zm4.79-11c1-1.76,2-3.47,3.07-5.14a1,1,0,0,0-.3-1.4,1,1,0,0,0-1.4.29q-1.68,2.58-3.15,5.29a1,1,0,0,0,.41,1.38,1,1,0,0,0,1.37-.42Zm6.54-10c1.23-1.57,2.52-3.1,3.87-4.57a1,1,0,1,0-1.49-1.37q-2.08,2.26-4,4.7a1,1,0,0,0,.18,1.42,1,1,0,0,0,1.42-.18Zm8.1-8.81c1.46-1.35,3-2.65,4.56-3.88a1,1,0,0,0-1.25-1.59q-2.43,1.89-4.69,4a1,1,0,1,0,1.38,1.49Zm9.42-7.37c1.67-1.09,3.38-2.12,5.14-3.07a1,1,0,0,0,.4-1.38,1,1,0,0,0-1.37-.4c-1.81,1-3.57,2-5.28,3.16a1,1,0,1,0,1.11,1.69Zm10.51-5.71c1.81-.8,3.67-1.53,5.56-2.19a1,1,0,0,0,.63-1.29,1,1,0,0,0-1.29-.62q-2.91,1-5.72,2.24a1,1,0,0,0,.82,1.86Zm11.3-3.9c1.92-.49,3.88-.9,5.86-1.23a1,1,0,0,0,.83-1.17,1,1,0,0,0-1.17-.83c-2,.34-4,.76-6,1.26a1,1,0,0,0-.73,1.24,1,1,0,0,0,1.23.73Zm11.8-2c2-.16,4-.25,6-.25a1,1,0,0,0,0-2q-3.1,0-6.14.26a1,1,0,1,0,.17,2Zm12,0c2,.16,4,.4,5.94.72a1,1,0,1,0,.33-2q-3-.5-6.11-.74a1,1,0,0,0-.16,2Zm11.8,1.93q2.93.73,5.74,1.7a1,1,0,0,0,.66-1.92c-1.94-.66-3.9-1.24-5.9-1.74a1,1,0,1,0-.5,2Zm11.33,3.87c1.83.8,3.63,1.67,5.38,2.62a1,1,0,1,0,1-1.78c-1.81-1-3.65-1.88-5.54-2.7a1,1,0,1,0-.81,1.86Zm10.53,5.68q2.5,1.64,4.88,3.47a1,1,0,0,0,1.42-.17,1,1,0,0,0-.18-1.43c-1.62-1.25-3.29-2.45-5-3.57a1,1,0,0,0-1.41.3,1,1,0,0,0,.3,1.4Zm9.45,7.34c1.47,1.35,2.89,2.76,4.24,4.22a1,1,0,0,0,1.44.06,1,1,0,0,0,.05-1.43q-2.09-2.26-4.36-4.35a1,1,0,0,0-1.37,1.5Zm8.13,8.78c1.22,1.57,2.39,3.19,3.49,4.86a1,1,0,0,0,1.69-1.11c-1.13-1.72-2.33-3.38-3.59-5a1,1,0,1,0-1.59,1.25ZM254,148q1.42,2.61,2.64,5.36a1,1,0,1,0,1.85-.82q-1.24-2.82-2.71-5.51a1,1,0,1,0-1.78,1ZM258.79,159q1,2.82,1.72,5.74a1,1,0,0,0,1.23.73,1,1,0,0,0,.73-1.24c-.51-2-1.1-4-1.77-5.89a1,1,0,0,0-1.29-.63,1,1,0,0,0-.62,1.29Zm2.95,11.59q.5,2.94.75,5.94a1,1,0,1,0,2-.17q-.25-3.09-.77-6.11a1,1,0,0,0-1.17-.83,1,1,0,0,0-.83,1.17Zm1,11.92v.18c0,2-.09,4-.25,6a1,1,0,1,0,2,.16q.25-3,.25-6.14v-.18a1,1,0,1,0-2,0Z"/><path class="cls-4" d="M298.19,132.36q-.49,3-1.23,5.86a1,1,0,1,0,2,.49q.75-3,1.26-6a1,1,0,0,0-.84-1.17,1,1,0,0,0-1.16.84ZM295.26,144q-1,2.85-2.18,5.58a1,1,0,0,0,1.86.82c.82-1.87,1.57-3.79,2.24-5.74a1,1,0,1,0-1.92-.66Zm-4.81,11q-1.44,2.64-3.07,5.15a1,1,0,0,0,.29,1.4,1,1,0,0,0,1.41-.29q1.68-2.58,3.15-5.29a1,1,0,1,0-1.78-1Zm-6.55,10c-1.23,1.57-2.52,3.1-3.88,4.56a1,1,0,1,0,1.5,1.38q2.07-2.26,4-4.7a1,1,0,0,0-1.6-1.24Zm-8.11,8.8q-2.21,2-4.57,3.87a1,1,0,0,0-.17,1.43,1,1,0,0,0,1.42.17q2.43-1.89,4.7-4a1,1,0,0,0-1.38-1.49Zm-9.43,7.35q-2.5,1.65-5.14,3.07a1,1,0,1,0,1,1.79c1.8-1,3.57-2,5.28-3.16a1,1,0,0,0,.29-1.4,1,1,0,0,0-1.4-.3Zm-10.51,5.71c-1.82.8-3.68,1.52-5.57,2.18a1,1,0,1,0,.66,1.91c1.94-.67,3.85-1.41,5.72-2.24a1,1,0,1,0-.81-1.85Zm-11.31,3.88c-1.92.49-3.88.9-5.86,1.23a1,1,0,0,0,.33,2q3.06-.51,6-1.26a1,1,0,0,0,.73-1.23,1,1,0,0,0-1.23-.74Zm-11.8,2c-2,.16-4,.24-6,.24a1,1,0,0,0,0,2c2.07,0,4.12-.09,6.15-.25a1,1,0,0,0,.92-1.1,1,1,0,0,0-1.09-.92Zm-12,0q-3-.24-5.94-.73a1,1,0,0,0-.33,2q3,.5,6.1.74a1,1,0,1,0,.17-2ZM209,190.7q-2.92-.73-5.74-1.7a1,1,0,1,0-.66,1.91c1.93.66,3.9,1.25,5.9,1.75a1,1,0,0,0,.5-2Zm-11.32-3.88c-1.84-.8-3.63-1.68-5.39-2.63a1,1,0,0,0-1,1.78q2.7,1.47,5.53,2.71a1,1,0,1,0,.82-1.86Zm-10.53-5.7c-1.67-1.09-3.3-2.25-4.87-3.48a1,1,0,0,0-1.43.18,1,1,0,0,0,.18,1.42c1.62,1.26,3.29,2.46,5,3.58a1,1,0,0,0,1.4-.29,1,1,0,0,0-.29-1.41Zm-9.44-7.35c-1.47-1.35-2.89-2.76-4.24-4.23a1,1,0,0,0-1.49,1.38q2.08,2.27,4.35,4.35a1,1,0,1,0,1.38-1.5ZM169.57,165c-1.22-1.57-2.39-3.19-3.48-4.87a1,1,0,1,0-1.7,1.12c1.13,1.72,2.32,3.38,3.59,5a1,1,0,1,0,1.59-1.25ZM163,155c-.94-1.75-1.83-3.54-2.63-5.37a1,1,0,0,0-1.86.81c.83,1.89,1.74,3.73,2.71,5.53a1,1,0,0,0,1.38.4A1,1,0,0,0,163,155ZM158.2,144q-1-2.82-1.71-5.74a1,1,0,0,0-2,.5c.51,2,1.09,4,1.76,5.9a1,1,0,0,0,1.92-.66Zm-2.94-11.59q-.49-2.94-.74-5.94a1,1,0,0,0-2,.16c.18,2.06.43,4.1.77,6.11a1,1,0,0,0,2-.33Zm-1-11.93v-.09c0-2,.09-3.94.24-5.89a1,1,0,0,0-2-.16q-.24,3-.24,6.05v.1a1,1,0,0,0,1,1,1,1,0,0,0,1-1Zm1-11.92c.32-2,.73-3.94,1.21-5.86a1,1,0,1,0-2-.49c-.49,2-.91,4-1.24,6a1,1,0,0,0,.83,1.17,1,1,0,0,0,1.17-.84ZM158.14,97q1-2.85,2.17-5.58a1,1,0,1,0-1.86-.82q-1.23,2.82-2.23,5.74a1,1,0,0,0,1.92.66Zm4.8-11q1.42-2.64,3.06-5.14a1,1,0,0,0-1.7-1.11q-1.68,2.58-3.15,5.29a1,1,0,0,0,1.79,1Zm6.54-10c1.22-1.57,2.51-3.1,3.86-4.57a1,1,0,1,0-1.49-1.37q-2.08,2.27-4,4.7a1,1,0,0,0,.17,1.42,1,1,0,0,0,1.43-.18Zm8.09-8.81c1.47-1.35,3-2.65,4.56-3.88a1,1,0,0,0,.18-1.42,1,1,0,0,0-1.43-.18c-1.61,1.27-3.18,2.6-4.68,4a1,1,0,0,0,1.37,1.49ZM187,59.83c1.66-1.09,3.37-2.12,5.13-3.07a1,1,0,0,0,.41-1.38,1,1,0,0,0-1.38-.4q-2.7,1.47-5.28,3.16A1,1,0,1,0,187,59.83Zm10.5-5.71q2.73-1.2,5.57-2.19a1,1,0,1,0-.66-1.91q-2.92,1-5.73,2.24a1,1,0,0,0,.82,1.86Zm11.3-3.9q2.89-.73,5.86-1.24a1,1,0,0,0-.33-2q-3.06.52-6,1.27a1,1,0,0,0,.5,2Zm11.8-2c2-.16,4-.25,6-.25a1,1,0,0,0,0-2q-3.11,0-6.15.26a1,1,0,1,0,.17,2Zm12,0q3,.24,5.94.72a1,1,0,1,0,.33-2c-2-.33-4-.58-6.11-.74a1,1,0,1,0-.16,2Zm11.81,1.93c1.94.49,3.86,1.06,5.74,1.7a1,1,0,0,0,.65-1.92q-2.89-1-5.9-1.75a1,1,0,0,0-1.23.74,1,1,0,0,0,.74,1.23ZM255.69,54c1.84.81,3.63,1.68,5.39,2.63a1,1,0,0,0,1-1.79q-2.7-1.45-5.54-2.69a1,1,0,0,0-.81,1.85Zm10.53,5.69q2.52,1.63,4.88,3.47a1,1,0,0,0,1.24-1.6c-1.61-1.26-3.29-2.45-5-3.57a1,1,0,0,0-1.11,1.7ZM275.68,67c1.47,1.35,2.88,2.75,4.24,4.22a1,1,0,0,0,1.43.06,1,1,0,0,0,.06-1.44q-2.1-2.25-4.36-4.34a1,1,0,1,0-1.37,1.5Zm8.12,8.78q1.84,2.36,3.49,4.86a1,1,0,0,0,1.7-1.11q-1.69-2.58-3.59-5A1,1,0,0,0,284,74.4a1,1,0,0,0-.17,1.42Zm6.57,10c.95,1.75,1.84,3.54,2.64,5.37a1,1,0,0,0,1.86-.82q-1.25-2.82-2.72-5.52a1,1,0,0,0-1.78,1Zm4.83,10.94q1,2.82,1.72,5.73a1,1,0,0,0,2-.5q-.76-3-1.77-5.89a1,1,0,0,0-1.92.66Zm3,11.59c.32,2,.58,3.93.74,5.94a1,1,0,0,0,1.1.92,1,1,0,0,0,.92-1.09c-.17-2.06-.43-4.1-.76-6.11a1,1,0,0,0-1.17-.83,1,1,0,0,0-.83,1.17Zm1,11.92v.17c0,2-.08,4-.24,6a1,1,0,1,0,2,.16q.26-3,.25-6.15v-.18a1,1,0,0,0-2,0Z"/><text class="cls-17" transform="translate(205.49 79.71)">PEDAGOGY</text><text class="cls-17" transform="translate(272.58 195.14)">TECHNOLOGY</text><text class="cls-17" transform="translate(129.5 195.14)">POLICY &amp; </text><text class="cls-17" transform="translate(129.5 205.3)">RESEARCH</text><text class="cls-18" transform="translate(211.11 338.16) rotate(-59)">PROFICIENCY BUILDING</text><text class="cls-19" transform="translate(63.64 87.44)">SPEAKING &amp; LISTENING</text><text class="cls-19" transform="translate(300.79 87.44)">AUTHENTIC CONTENT</text><text class="cls-20" transform="translate(190.41 6.83)">SLA lear</text><text class="cls-20" transform="translate(219.88 6.83)">ning theory</text><text class="cls-20" transform="translate(190.41 17)">Activities in-class for immersion</text><text class="cls-20" transform="translate(190.41 27.15)">Dif</text><text class="cls-20" transform="translate(200.48 27.15)">fer</text><text class="cls-20" transform="translate(209.8 27.15)">ences between SLA and other classr</text><text class="cls-20" transform="translate(338.27 27.15)">oom</text><text class="cls-20" transform="translate(354.58 27.15)">s</text><text class="cls-20" transform="translate(50.11 238.4)">State standar</text><text class="cls-20" transform="translate(96.91 238.4)">ds</text><text class="cls-20" transform="translate(44.3 248.57)">ACTFL standar</text><text class="cls-20" transform="translate(96.91 248.57)">ds</text><text class="cls-20" transform="translate(0 258.74)">How to conduct SLA r</text><text class="cls-20" transform="translate(77.93 258.74)">esear</text><text class="cls-20" transform="translate(96.9 258.74)">ch</text><text class="cls-20" transform="translate(358.1 166.2)">ASR in SLA</text><text class="cls-20" transform="translate(358.1 176.36)">AI/ML in SLA</text><text class="cls-20" transform="translate(358.1 186.53)">AR/VR/XR in SLA</text><text class="cls-20" transform="translate(358.1 196.7)">Data science appr</text><text class="cls-20" transform="translate(422.27 196.7)">oaches</text><text class="cls-20" transform="translate(358.1 206.86)">Media for authentic context</text><line class="cls-21" x1="109.81" y1="235.73" x2="197.36" y2="235.73"/><path class="cls-22" d="M197.36,236.33a.6.6,0,1,0-.6-.6.6.6,0,0,0,.6.6Z"/><line class="cls-21" x1="186.03" y1="100.63" x2="186.03"/><path class="cls-22" d="M186.64,100.63a.61.61,0,1,0-.61.6.6.6,0,0,0,.61-.6Z"/><line class="cls-21" x1="301.39" y1="160.26" x2="354.77" y2="160.26"/></g></g></svg>